<?xml version="1.0" encoding="UTF-8" standalone="no"?>
<!-- Created with Inkscape (http://www.inkscape.org/) -->

<svg
   xmlns:dc="http://purl.org/dc/elements/1.1/"
   xmlns:cc="http://creativecommons.org/ns#"
   xmlns:rdf="http://www.w3.org/1999/02/22-rdf-syntax-ns#"
   xmlns:svg="http://www.w3.org/2000/svg"
   xmlns="http://www.w3.org/2000/svg"
   xmlns:sodipodi="http://sodipodi.sourceforge.net/DTD/sodipodi-0.dtd"
   xmlns:inkscape="http://www.inkscape.org/namespaces/inkscape"
   width="600"
   height="800"
   id="svg2"
   version="1.1"
   inkscape:version="0.48.4 r9939"
   sodipodi:docname="BirdInCage.svg">
  <defs
     id="defs4">
    <pattern
       height="100"
       width="100"
       y="0"
       x="0"
       patternUnits="userSpaceOnUse"
       id="gridpattern">
      <image
         height="100"
         width="100"
         y="0"
         x="0"
         id="svg_1" />
    </pattern>
  </defs>
  <sodipodi:namedview
     id="base"
     pagecolor="#ffffff"
     bordercolor="#666666"
     borderopacity="1.0"
     inkscape:pageopacity="0.0"
     inkscape:pageshadow="2"
     inkscape:zoom="0.99375"
     inkscape:cx="288.78069"
     inkscape:cy="398.49057"
     inkscape:document-units="px"
     inkscape:current-layer="layer1"
     showgrid="false"
     inkscape:window-width="986"
     inkscape:window-height="1017"
     inkscape:window-x="669"
     inkscape:window-y="25"
     inkscape:window-maximized="0" />
  <metadata
     id="metadata7">
    <rdf:RDF>
      <cc:Work
         rdf:about="">
        <dc:format>image/svg+xml</dc:format>
        <dc:type
           rdf:resource="http://purl.org/dc/dcmitype/StillImage" />
        <dc:title></dc:title>
      </cc:Work>
    </rdf:RDF>
  </metadata>
  <g
     inkscape:groupmode="layer"
     id="layer3"
     inkscape:label="cage"
     style="display:inline" />
  <g
     inkscape:label="leaf"
     inkscape:groupmode="layer"
     id="layer1"
     transform="translate(0,-252.36218)"
     style="display:inline">
    <g
       transform="translate(76.756427,455.63946)"
       style="display:inline"
       id="svg_119-1">
      <path
         stroke-linejoin="null"
         stroke-linecap="null"
         d="m 206.46031,298.49329 c -0.26053,-1.6901 -21.65147,-6.01096 -53.6956,-0.3743 -35.52783,6.24969 -66.182419,19.45297 -96.067665,39.03232 -27.514568,18.02606 -39.420364,33.08618 -39.312843,53.64187 0.08938,17.10031 15.229588,36.71289 31.216503,45.36511 19.1712,10.37568 46.2934,15.86252 71.899085,6.21943 21.85423,-8.23084 40.19282,-23.49216 62.65341,-42.53272 20.47948,-17.36227 29.84523,-32.54935 35.47842,-50.45544 4.71585,-14.99543 8.64896,-28.62009 10.00022,-36.14646 0.77029,-4.29123 -0.32734,-7.73565 -7.41501,-14.42917 l -11.63687,-2.5318 -7.73566,0.32734 -6.04556,0.0668"
         id="svg_47-7"
         inkscape:connector-curvature="0"
         style="fill:#e8a437;stroke:#000000;stroke-width:5.5;stroke-opacity:0;stroke-dasharray:none" />
      <path
         stroke-linejoin="null"
         stroke-linecap="null"
         d="m 26.101795,414.88196 c 0,0 0.782928,-0.61783 5.785038,-1.7569 5.895035,-1.34231 10.631523,-4.13156 14.689716,-5.72491 6.562977,-2.57679 12.33485,-7.90857 18.263615,-10.60144 5.504723,-2.50025 9.56115,-3.60102 10.594765,-4.22855 2.923485,-1.77493 9.26609,-2.02637 13.260162,-3.77432 7.431023,-3.25202 14.766119,-6.72205 20.929009,-10.14719 6.68458,-3.71506 19.74534,-10.0412 36.78775,-19.51282 15.71231,-8.73236 28.38463,-17.07513 49.78738,-24.9772 13.84642,-5.11215 25.73874,-12.61883 31.00272,-17.75592 l 2.40486,-1.23581 -0.26051,-1.69009"
         id="svg_48-4"
         inkscape:connector-curvature="0"
         style="fill:none;stroke:#f9f7f7;stroke-width:5.5;stroke-dasharray:none" />
      <path
         stroke-linejoin="null"
         stroke-linecap="null"
         d="m 58.600876,401.22098 c 0,0 2.101311,-1.57794 10.66156,1.81702 21.474289,8.5166 37.449094,18.45065 53.962504,24.55633 l 16.5134,6.10568 3.6407,1.16904 2.66539,0.45425"
         id="svg_49-0"
         inkscape:connector-curvature="0"
         style="fill:none;stroke:#f9f7f7;stroke-width:5.5;stroke-dasharray:none" />
      <path
         stroke-linejoin="null"
         stroke-linecap="null"
         d="m 109.36357,376.95856 c 0,0 1.22871,0.0375 8.2567,3.05285 16.81586,7.21494 32.8331,16.56684 43.75519,20.07395 l 11.8974,4.22186 2.66539,0.45425"
         id="svg_50-9"
         inkscape:connector-curvature="0"
         style="fill:none;stroke:#f9f7f7;stroke-width:5.5;stroke-dasharray:none" />
      <path
         stroke-linejoin="null"
         stroke-linecap="null"
         d="m 155.056,353.47772 c 0,0 4.35548,0.19373 18.91827,4.86985 l 15.79863,7.08099 17.48871,6.82046 3.6407,1.16904"
         id="svg_51-4"
         inkscape:connector-curvature="0"
         style="fill:none;stroke:#f9f7f7;stroke-width:5.5;stroke-dasharray:none" />
      <path
         stroke-linejoin="null"
         stroke-linecap="null"
         d="m 52.749035,396.93231 c 0,0 0.84692,0.60623 1.69009,-0.26053 6.138206,-6.30996 15.854332,-14.18881 18.130005,-22.69256 3.494812,-13.0596 4.873985,-20.48139 7.922699,-27.17499 4.133011,-9.07431 7.53524,-18.46402 9.158524,-24.77011 l 0.454254,-2.66541 0.454254,-2.66537 1.429558,-1.95062"
         id="svg_52-8"
         inkscape:connector-curvature="0"
         style="fill:none;stroke:#f9f7f7;stroke-width:5.5;stroke-dasharray:none" />
      <path
         stroke-linejoin="null"
         stroke-linecap="null"
         d="m 113.19799,373.77209 c 0,0 -5.11603,-3.27011 -2.86579,-18.59094 2.38993,-16.27212 8.57066,-34.19583 13.2468,-48.75863 l 3.05284,-8.25669 2.14433,-2.92593"
         id="svg_53-8"
         inkscape:connector-curvature="0"
         style="fill:none;stroke:#f9f7f7;stroke-width:5.5;stroke-dasharray:none" />
      <path
         stroke-linejoin="null"
         stroke-linecap="null"
         d="m 156.67928,347.17163 c 0,0 -1.3294,-10.33844 3.37348,-23.01321 4.64612,-12.52173 9.94011,-19.69986 14.22879,-25.5517 l 1.42957,-1.95062 0.71477,-0.97531"
         id="svg_54-2"
         inkscape:connector-curvature="0"
         style="fill:none;stroke:#f9f7f7;stroke-width:5.5;stroke-dasharray:none" />
    </g>
    <g
       style="display:inline"
       transform="matrix(-0.18194378,0.98330893,-0.98330893,-0.18194378,879.53011,242.99242)"
       id="svg_93-4">
      <path
         stroke-linejoin="null"
         stroke-linecap="null"
         d="m 472.31647,313.73117 c -0.99216,0.70102 3.03613,15.67154 16.77069,34.26163 15.2279,20.61145 33.33398,35.92148 55.24994,48.7225 20.17761,11.78565 33.52514,14.58579 46.56189,8.00617 10.84521,-5.47351 18.5202,-21.31324 18.95813,-34.21949 0.52514,-15.47702 -4.5774,-34.46154 -18.82013,-47.68817 -12.15662,-11.28933 -27.66889,-18.11651 -46.89136,-26.36657 -17.52698,-7.5224 -30.15076,-8.66788 -43.32123,-6.5773 -11.02896,1.75058 -20.93777,3.56555 -26.15207,5.09094 -2.97259,0.8696 -4.81515,2.65848 -6.82626,9.28552 l 2.07623,8.20148 2.65848,4.81518 1.95749,3.82303"
         id="svg_94-5"
         inkscape:connector-curvature="0"
         style="fill:#64b3e0;stroke:#000000;stroke-width:5.5;stroke-opacity:0;stroke-dasharray:none" />
      <path
         stroke-linejoin="null"
         stroke-linecap="null"
         d="m 602.6853,391.07187 c 0,0 -0.64081,-0.30216 -2.94958,-3.12201 -2.72089,-3.32327 -5.99481,-5.45154 -8.29346,-7.52731 -3.71735,-3.35697 -8.93597,-5.3382 -12.5263,-8.25513 -3.3335,-2.70828 -5.31836,-4.93899 -6.0448,-5.39746 -2.05469,-1.29666 -4.22364,-5.25009 -6.60029,-7.23615 -4.42169,-3.69503 -8.95166,-7.26001 -13.08172,-10.09387 -4.47974,-3.07367 -12.63947,-9.37472 -24.06061,-17.21127 -10.52966,-7.22486 -19.84863,-12.64014 -31.65286,-23.7464 -7.63669,-7.18515 -16.17697,-12.36923 -21.1109,-14.08923 l -1.54761,-1.1377 -0.99213,0.70099"
         id="svg_95-5"
         inkscape:connector-curvature="0"
         style="fill:none;stroke:#f9f7f7;stroke-width:5.5;stroke-dasharray:none" />
      <path
         stroke-linejoin="null"
         stroke-linecap="null"
         d="m 583.70447,374.73437 c 0,0 -1.66901,-0.83636 -2.2218,-7.35491 -1.38672,-16.3526 -0.13025,-29.6572 -1.47864,-42.09159 l -1.34839,-12.43435 -0.40985,-2.68531 -0.55548,-1.83871"
         id="svg_96-1"
         inkscape:connector-curvature="0"
         style="fill:none;stroke:#f9f7f7;stroke-width:5.5;stroke-dasharray:none" />
      <path
         stroke-linejoin="null"
         stroke-linecap="null"
         d="m 552.19672,350.14123 c 0,0 -0.36536,-0.79315 -0.6742,-6.21719 -0.73889,-12.97806 0.1341,-26.12527 -1.09552,-34.18112 l -1.0841,-8.90253 -0.55542,-1.83871"
         id="svg_97-7"
         inkscape:connector-curvature="0"
         style="fill:none;stroke:#f9f7f7;stroke-width:5.5;stroke-dasharray:none" />
      <path
         stroke-linejoin="null"
         stroke-linecap="null"
         d="m 522.79273,328.52545 c 0,0 -1.25648,-2.83087 -2.89594,-13.57211 l -0.50189,-12.28879 -1.20276,-13.28097 -0.40991,-2.68531"
         id="svg_98-1"
         inkscape:connector-curvature="0"
         style="fill:none;stroke:#f9f7f7;stroke-width:5.5;stroke-dasharray:none" />
      <path
         stroke-linejoin="null"
         stroke-linecap="null"
         d="m 582.83148,379.8136 c 0,0 0.11719,-0.73059 -0.70105,-0.99216 -5.9566,-1.90439 -14.04419,-5.58682 -20.17236,-4.34018 -9.4112,1.91452 -14.56732,3.38846 -19.78931,3.57019 -7.07922,0.24631 -14.12756,1.05725 -18.65155,2.02259 l -1.83874,0.55545 -1.83875,0.55545 -1.69324,-0.29114"
         id="svg_99-1"
         inkscape:connector-curvature="0"
         style="fill:none;stroke:#f9f7f7;stroke-width:5.5;stroke-dasharray:none" />
      <path
         stroke-linejoin="null"
         stroke-linecap="null"
         d="m 548.95648,348.71255 c 0,0 -0.4588,4.28895 -10.91363,7.71116 -11.10401,3.6347 -24.45899,5.38208 -35.20017,7.0216 l -6.21719,0.6742 -2.53974,-0.43671"
         id="svg_100-5"
         inkscape:connector-curvature="0"
         style="fill:none;stroke:#f9f7f7;stroke-width:5.5;stroke-dasharray:none" />
      <path
         stroke-linejoin="null"
         stroke-linecap="null"
         d="m 518.26868,329.49042 c 0,0 -6.15283,4.12011 -15.70197,5.14459 -9.43387,1.01205 -15.67514,-0.0805 -20.75461,-0.95386 l -1.69317,-0.29114 -0.84659,-0.14557"
         id="svg_101-2"
         inkscape:connector-curvature="0"
         style="fill:none;stroke:#f9f7f7;stroke-width:5.5;stroke-dasharray:none" />
    </g>
    <g
       transform="translate(-50.502748,530.81996)"
       style="display:inline"
       id="svg_45-4">
      <path
         stroke-linejoin="null"
         stroke-linecap="null"
         id="svg_36-2"
         d="m 257.32016,65.695465 c -0.76205,-0.762077 -13.24561,5.010605 -27.43471,19.813965 -15.73186,16.41293 -26.39587,34.54522 -34.29339,55.63152 -7.27109,19.41372 -7.7127,31.50483 0,41.91415 6.4161,8.65941 21.41909,12.98854 32.76924,11.43114 13.61099,-1.86762 29.44262,-9.18305 38.86584,-23.62435 8.04303,-12.32611 11.68018,-26.91536 16.0036,-44.96246 3.94208,-16.45522 3.04578,-27.664803 -0.76208,-38.865852 -3.18869,-9.379791 -6.26523,-17.7705 -8.38282,-22.100189 -1.20721,-2.4683 -3.0483,-3.810375 -9.14492,-4.572453 l -6.85868,3.048302 -3.81038,3.048306 -3.04829,2.286224"
         inkscape:connector-curvature="0"
         style="fill:#b2d365;stroke:#000000;stroke-width:5.5;stroke-opacity:0;stroke-dasharray:none" />
      <path
         stroke-linejoin="null"
         stroke-linecap="null"
         id="svg_38-3"
         d="m 208.54733,191.43793 c 0,0 0.16783,-0.60576 2.28623,-3.0483 2.49658,-2.87857 3.8652,-6.061 5.33453,-8.38284 2.37624,-3.7549 3.32393,-8.61557 5.33453,-12.19321 1.86681,-3.32174 3.51874,-5.39253 3.81038,-6.0966 0.82486,-1.99139 3.95539,-4.48216 5.33452,-6.85867 2.56595,-4.42156 5.00188,-8.9182 6.85869,-12.9553 2.01398,-4.37883 6.29646,-12.46043 11.43114,-23.62433 4.73391,-10.2926 8.06765,-19.254632 16.00357,-31.245103 5.13412,-7.757179 8.38284,-16.003586 9.14493,-20.576035 l 0.76205,-1.524155 -0.76205,-0.762077"
         inkscape:connector-curvature="0"
         style="fill:none;stroke:#f9f7f7;stroke-width:5.5;stroke-dasharray:none" />
      <path
         stroke-linejoin="null"
         stroke-linecap="null"
         id="svg_39-2"
         d="m 219.97847,172.38605 c 0,0 0.48032,-1.58498 6.0966,-3.04831 14.08905,-3.67092 25.91057,-4.57245 36.57962,-7.62076 l 10.66907,-3.04829 2.28622,-0.76209 1.52414,-0.76207"
         inkscape:connector-curvature="0"
         style="fill:none;stroke:#f9f7f7;stroke-width:5.5;stroke-dasharray:none" />
      <path
         stroke-linejoin="null"
         stroke-linecap="null"
         id="svg_40-2"
         d="m 236.74412,141.14094 c 0,0 0.63855,-0.43872 5.33454,-1.52415 11.23605,-2.59709 22.86226,-3.81038 29.72096,-6.0966 l 7.62073,-2.28623 1.52417,-0.76207"
         inkscape:connector-curvature="0"
         style="fill:none;stroke:#f9f7f7;stroke-width:5.5;stroke-dasharray:none" />
      <path
         stroke-linejoin="null"
         stroke-linecap="null"
         id="svg_41-1"
         d="m 251.22357,112.18208 c 0,0 2.28623,-1.52416 11.43112,-4.57246 l 10.66907,-2.28622 11.43112,-3.04831 2.28623,-0.76207"
         inkscape:connector-curvature="0"
         style="fill:none;stroke:#f9f7f7;stroke-width:5.5;stroke-dasharray:none" />
      <path
         stroke-linejoin="null"
         stroke-linecap="null"
         id="svg_42-6"
         d="m 215.40602,172.38605 c 0,0 0.65637,-0.007 0.76207,-0.76209 0.76952,-5.49437 2.77335,-13.11922 0.76209,-18.28981 -3.08881,-7.94067 -5.15268,-12.22725 -6.09662,-16.76565 -1.27965,-6.15258 -3.0483,-12.19322 -4.57245,-16.0036 l -0.76207,-1.52414 -0.76209,-1.52416 0,-1.52415"
         inkscape:connector-curvature="0"
         style="fill:none;stroke:#f9f7f7;stroke-width:5.5;stroke-dasharray:none" />
      <path
         stroke-linejoin="null"
         stroke-linecap="null"
         id="svg_43-8"
         d="m 237.50621,138.09264 c 0,0 -3.81897,0.24363 -8.38283,-8.38283 -4.84727,-9.16213 -8.38284,-20.57604 -11.43113,-29.720949 l -1.52416,-5.334526 0,-2.286224"
         inkscape:connector-curvature="0"
         style="fill:none;stroke:#f9f7f7;stroke-width:5.5;stroke-dasharray:none" />
      <path
         stroke-linejoin="null"
         stroke-linecap="null"
         id="svg_44-5"
         d="m 249.69942,108.3717 c 0,0 -4.52736,-4.76017 -6.85868,-12.955288 -2.30316,-8.096176 -2.28624,-13.717361 -2.28624,-18.289818 l 0,-1.524147 0,-0.762077"
         inkscape:connector-curvature="0"
         style="fill:none;stroke:#f9f7f7;stroke-width:5.5;stroke-dasharray:none" />
    </g>
  </g>
  <g
     inkscape:groupmode="layer"
     id="layer2"
     inkscape:label="flower"
     style="display:inline"
     sodipodi:insensitive="true">
    <g
       style="display:inline"
       transform="matrix(0.57607143,0.81739935,-0.81739935,0.57607143,171.25231,-371.67015)"
       id="svg_110-7">
      <path
         stroke-linejoin="null"
         d="m 488.83997,288.52936 c 0,-1 0.97363,-7.24289 8,-12 6.30636,-4.26963 13.0252,-3.11865 18,-2 8.04528,1.80911 15.08654,3.38061 17,8 2.70593,6.53283 1,15 1,20 0,1 0.97045,0.80307 7,0 9.96191,-1.32682 15.87689,-1.12308 20,3 4.1231,4.12311 8.38293,13.41812 6,20 -2.65882,7.34378 -12,10 -16,12 -2,1 4.945,3.29501 7,12 2.29754,9.73248 -1.42829,20.42334 -6,26 -4.48298,5.46835 -10.94483,9.06201 -20,9 -8.06208,-0.0552 -11.71418,-5.21167 -14,-8 -0.89661,-1.09369 -0.17188,0.22494 -3,9 -2.33619,7.24859 -12.96088,9.29602 -27,11 -9.97669,1.21091 -20.7334,-0.71097 -22,-5 -2.5647,-8.6846 3,-17 7,-21 3,-3 2,-4 -6,-4 -9,0 -18.81931,-3.61609 -23,-11 -4.06293,-7.17584 -3.27155,-17.0795 2,-22 5.89373,-5.50125 14.76727,-2.0567 18,-6 0.63394,-0.77335 -9.93689,-4.62683 -13,-11 -3.92267,-8.16162 -1.02637,-22.24289 6,-27 6.30636,-4.26963 15,-4 22,-4 6,0 9,0 11,1 l 2,2 -1,0 -1,0"
         id="svg_111-6"
         inkscape:connector-curvature="0"
         style="fill:#ff0000;stroke:#000000;stroke-width:2.5;stroke-linecap:round;stroke-opacity:0;stroke-dasharray:none" />
      <ellipse
         stroke-linejoin="null"
         stroke-linecap="null"
         cx="506.83997"
         cy="332.52936"
         rx="29"
         ry="26.000002"
         id="svg_112-1"
         sodipodi:cx="506.83997"
         sodipodi:cy="332.52936"
         sodipodi:rx="29"
         sodipodi:ry="26.000002"
         style="fill:#000000;stroke:#fffcfc;stroke-width:5.5;stroke-dasharray:none"
         d="m 535.83997,332.52936 c 0,14.3594 -12.98375,26 -29,26 -16.01626,0 -29,-11.6406 -29,-26 0,-14.35941 12.98374,-26 29,-26 16.01625,0 29,11.64059 29,26 z" />
    </g>
    <g
       style="display:inline"
       transform="matrix(0.6154978,0.78813861,-0.78813861,0.6154978,494.68733,-342.59286)"
       id="svg_116-7">
      <path
         stroke-linejoin="null"
         d="m 279.83997,367.52936 c 0,-1 0.97363,-7.24292 8,-12 6.30636,-4.26966 13.0252,-3.11868 18,-2 8.04531,1.80911 15.08657,3.38058 17,8 2.70599,6.53283 1,15 1,20 0,1 0.97049,0.80304 7,0 9.96191,-1.32682 15.87689,-1.12311 20,3 4.1231,4.12311 8.38296,13.41812 6,20 -2.65882,7.34375 -12,10 -16,12 -2,1 4.94503,3.29498 7,12 2.29751,9.73248 -1.42826,20.42334 -6,26 -4.48298,5.46835 -10.94483,9.06201 -20,9 -8.06208,-0.0552 -11.71412,-5.21167 -14,-8 -0.89661,-1.09369 -0.17188,0.22494 -3,9 -2.33619,7.24859 -12.96088,9.29602 -27,11 -9.97666,1.21091 -20.7334,-0.71097 -22,-5 -2.5647,-8.6846 3,-17 7,-21 3,-3 2,-4 -6,-4 -9,0 -18.81931,-3.61609 -23,-11 -4.0629,-7.17584 -3.27152,-17.07953 2,-22 5.89373,-5.50128 14.76727,-2.0567 18,-6 0.63397,-0.77335 -9.93689,-4.62683 -13,-11 -3.92267,-8.16165 -1.02637,-22.24292 6,-27 6.30636,-4.26966 15,-4 22,-4 6,0 9,0 11,1 l 2,2 -1,0 -1,0"
         id="svg_117-6"
         inkscape:connector-curvature="0"
         style="fill:#5984af;stroke:#000000;stroke-width:2.5;stroke-linecap:round;stroke-opacity:0;stroke-dasharray:none" />
      <ellipse
         stroke-linejoin="null"
         stroke-linecap="null"
         cx="296.83997"
         cy="411.52936"
         rx="29"
         ry="26.000002"
         id="svg_118-1"
         sodipodi:cx="296.83997"
         sodipodi:cy="411.52936"
         sodipodi:rx="29"
         sodipodi:ry="26.000002"
         style="fill:#000000;stroke:#fffcfc;stroke-width:5.5;stroke-dasharray:none"
         d="m 325.83997,411.52936 c 0,14.3594 -12.98375,26 -29,26 -16.01626,0 -29,-11.6406 -29,-26 0,-14.35941 12.98374,-26 29,-26 16.01625,0 29,11.64059 29,26 z" />
    </g>
  </g>
</svg>
